<svg data-v-0dd9719b="" version="1.0" xmlns="http://www.w3.org/2000/svg"
    xmlns:xlink="http://www.w3.org/1999/xlink" width="100%" height="100%"
    viewBox="0 0 246.000000 53.700000" preserveAspectRatio="xMidYMid meet"
    color-interpolation-filters="sRGB" style="margin: auto;">
    <g data-v-0dd9719b="" fill="#3B82F6" class="icon-text-wrapper icon-svg-group iconsvg">
        <g class="iconsvg-imagesvg" transform="translate(0,0)">
            <g>
                <svg x="0" y="0" width="60"
                    height="53.88753671088439"
                    class="image-svg-svg primary" style="overflow: visible;">
                    <svg xmlns="http://www.w3.org/2000/svg" data-name="Layer 1"
                        viewBox="3.760000228881836 -1.0216342210769653 94.12000274658203 84.53154754638672"
                        x="0px" y="0px">
                        <title>icons_books_3</title>
                        <path
                            d="M4.75,83.18H40.59v-.09a35.62,35.62,0,0,0,10.29.09h46a1,1,0,0,0,1-1V21.62a1,1,0,0,0-1-1h-5v-7a1,1,0,0,0-.78-1l-1.22-.27a48.44,48.44,0,0,0-8-1.09V.62a1,1,0,0,0-.78-1L79.93-.63c-8.7-2-13.34,4-18.26,10.28-2.79,3.57-5.67,7.25-9.51,9.87l-.07,0-1.62,1.09A33.92,33.92,0,0,1,21.16,10.07L15.49,3.94a1,1,0,0,0-1.73.68v16h-9a1,1,0,0,0-1,1V82.18A1,1,0,0,0,4.75,83.18ZM91.54,75a1,1,0,0,0,.38-.79V22.62h4V81.18H54.22a46.67,46.67,0,0,1,36.45-6A1,1,0,0,0,91.54,75ZM89.48,14.32l.44.1v58.5a48.71,48.71,0,0,0-29.37,2.69c1.31-1.44,2.54-2.94,3.75-4.42,4.78-5.85,8.91-10.91,16.38-9a1,1,0,0,0,1.24-1V13.29A46.54,46.54,0,0,1,89.48,14.32ZM63.25,10.88C68,4.86,72-.34,79.49,1.32l.44.1V60c-7.92-1.35-12.42,4.16-17.17,10C59.91,73.4,57,77,53.07,79.54l-.07,0-1.16.75V22.15l1.38-.94.07-.05c.47-.32.94-.63,1.42-.93a1,1,0,0,0,.35-.41A54,54,0,0,0,63.25,10.88ZM15.75,7.17l3.94,4.26A36,36,0,0,0,49.84,22.75V81.3A33.93,33.93,0,0,1,21.16,70.63l-5.41-5.84Zm-10,15.45h8V65.18a1,1,0,0,0,.27.68L19.69,72a35.88,35.88,0,0,0,13.64,9.19H5.75Z"></path>
                    </svg>
                </svg>
                <defs>
                    <filter id="colors1582380139">
                        <feColorMatrix type="matrix"
                            values="0 0 0 0 0.86328125  0 0 0 0 0.76171875  0 0 0 0 0.421875  0 0 0 1 0"
                            class="icon-fecolormatrix"></feColorMatrix>
                    </filter>
                    <filter id="colorsf9338399853">
                        <feColorMatrix type="matrix"
                            values="0 0 0 0 0.99609375  0 0 0 0 0.99609375  0 0 0 0 0.99609375  0 0 0 1 0"
                            class="icon-fecolormatrix"></feColorMatrix>
                    </filter>
                    <filter id="colorsb2491863930">
                        <feColorMatrix type="matrix"
                            values="0 0 0 0 0  0 0 0 0 0  0 0 0 0 0  0 0 0 1 0"
                            class="icon-fecolormatrix"></feColorMatrix>
                    </filter>
                </defs>
            </g>
        </g>
        <g transform="translate(67,19.318767547607422)">
            <g data-gra="path-name" fill-rule="" class="tp-name iconsvg-namesvg">
                <g transform="scale(1)">
                    <g>
                        <path
                            d="M0.67-2.53L0.67 0 6.4 0 6.4-2.53 5.13-2.53 5.13-11.44 8.56-1.93 11.14-1.93 14.57-11.44 14.57-2.53 13.33-2.53 13.33 0 19.06 0 19.06-2.53 17.64-2.53 17.64-11.85 19.06-11.85 19.06-14.38 13.03-14.38 9.85-5.71 6.68-14.38 0.67-14.38 0.67-11.85 2.06-11.85 2.06-2.53ZM21.72-8.86L24.94 0 25.89 0 25.69 0.62C25.46 1.2 24.94 1.52 24.34 1.55 23.74 1.55 23.16 1.42 22.58 1.18L22.09 3.41C22.86 3.67 23.63 3.86 24.66 3.86 26.66 3.84 27.58 2.7 28.2 0.97L31.77-8.86 33.42-8.86 33.42-11.03 27.71-11.03 27.71-8.86 28.89-8.86 26.72-2.51 24.62-8.86 25.78-8.86 25.78-11.03 20.07-11.03 20.07-8.86ZM45.8-14.53C43.23-14.53 39.92-13.74 39.92-10.54 39.92-5.73 47.84-6.46 47.84-4.08 47.84-2.62 46.58-2.1 44.62-2.1 44-2.1 43.38-2.17 42.78-2.28L42.56-4.79 39.95-4.79 39.95-0.58C41.47-0.19 43.44 0.13 44.82 0.13 49.02 0.15 50.96-1.46 50.96-4.06 50.96-8.97 43.06-8.07 43.06-10.84 43.06-12.02 44.2-12.38 45.78-12.38 46.47-12.38 47.16-12.32 47.82-12.21L48.04-9.66 50.53-9.66 50.53-13.87C49.26-14.21 47.5-14.53 45.8-14.53ZM52.14-15.15L52.14-12.99 53.53-12.99 53.53-2.19 52.14-2.19 52.14 0 57.87 0 57.87-2.19 56.45-2.19 56.45-7.08C56.86-8.03 57.5-8.86 58.53-8.86 59.91-8.86 60.57-7.9 60.57-5.84L60.57 0 64.89 0 64.89-2.19 63.49-2.19 63.49-6.57C63.49-9.59 61.99-11.23 59.41-11.23 58.13-11.23 57.16-10.67 56.45-9.9L56.45-15.15ZM65.49-5.56C65.49-1.87 67.81 0.17 71.13 0.17 73.13 0.17 74.52-0.45 75.66-1.42L74.97-3.71C74.05-2.96 73.11-2.36 71.76-2.36 70.04-2.36 68.99-3.2 68.62-4.57L76.18-4.57C76.2-4.89 76.22-5.54 76.22-5.82 76.22-8.97 74.59-11.2 71.07-11.2 67.87-11.2 65.49-9.17 65.49-5.56ZM68.54-6.31C68.77-7.88 69.78-8.84 71.15-8.84 72.94-8.84 73.77-7.6 73.77-6.31ZM76.82-12.99L78.26-12.99 78.26-2.19 76.82-2.19 76.82 0 82.62 0 82.62-2.19 81.18-2.19 81.18-15.15 76.82-15.15ZM83.65-9.06L83.65-6.87 85.23-6.87 85.23-2.19 83.69-2.19 83.69 0 90 0 90-2.19 88.15-2.19 88.15-6.87 90.47-6.87 90.47-9.06 88.15-9.06 88.15-10.43C88.15-12.21 88.67-12.75 89.7-12.75 90.32-12.75 91.42-12.43 91.78-12.23L92.1-14.75C91.61-15.03 90.26-15.39 89.14-15.39 86.65-15.39 85.23-14.06 85.23-10.41L85.23-9.06ZM97.28-0.49C97.81-0.26 99.06 0.15 100.43 0.15 103.11 0.15 104.55-1.4 104.55-4.77L104.55-14.38 99.06-14.38 99.06-11.85 101.5-11.85 101.5-4.89C101.5-3.39 100.95-2.64 99.83-2.64 98.86-2.64 98.01-2.98 97.64-3.22ZM114.94-5.58C114.94-3.61 113.83-2.45 112.34-2.45 110.82-2.45 109.77-3.58 109.77-5.58 109.77-7.56 110.86-8.69 112.34-8.69 113.83-8.69 114.94-7.56 114.94-5.58ZM117.93-5.56C117.93-9.17 115.46-11.2 112.34-11.2 109.23-11.2 106.76-9.17 106.76-5.56 106.76-1.87 109.23 0.17 112.34 0.17 115.46 0.17 117.93-1.87 117.93-5.56ZM119.92-8.84L119.92-4.46C119.92-1.4 121.42 0.19 124 0.19 125.29 0.19 126.25-0.34 126.96-1.14L126.96 0 131.28 0 131.28-2.19 129.88-2.19 129.88-11.01 125.54-11.01 125.54-8.84 126.96-8.84 126.96-3.95C126.55-3.01 125.91-2.17 124.9-2.17 123.53-2.17 122.84-3.13 122.84-5.19L122.84-11.01 118.53-11.01 118.53-8.84ZM137.91 0L137.91-2.19 136.49-2.19 136.49-4.23C136.75-6.98 138.17-8.39 140.31-8.39 140.51-8.39 140.7-8.37 140.93-8.35L140.93-11.18C140.76-11.2 140.59-11.2 140.44-11.2 138.64-11.2 137.35-10.28 136.49-8.93L136.49-11.03 132.18-11.03 132.18-8.86 133.57-8.86 133.57-2.19 132.18-2.19 132.18 0ZM141.69-11.01L141.69-8.84 143.08-8.84 143.08-2.19 141.69-2.19 141.69 0 147.42 0 147.42-2.19 146-2.19 146-7.08C146.41-8.03 147.05-8.86 148.08-8.86 149.46-8.86 150.12-7.9 150.12-5.84L150.12 0 154.44 0 154.44-2.19 153.04-2.19 153.04-6.57C153.04-9.59 151.54-11.23 148.96-11.23 147.67-11.23 146.71-10.67 146-9.9L146-11.01ZM155.04-5.56C155.04-1.87 157.36 0.17 160.68 0.17 162.68 0.17 164.07-0.45 165.21-1.42L164.52-3.71C163.6-2.96 162.66-2.36 161.3-2.36 159.59-2.36 158.54-3.2 158.17-4.57L165.73-4.57C165.75-4.89 165.77-5.54 165.77-5.82 165.77-8.97 164.14-11.2 160.62-11.2 157.42-11.2 155.04-9.17 155.04-5.56ZM158.08-6.31C158.32-7.88 159.33-8.84 160.7-8.84 162.49-8.84 163.32-7.6 163.32-6.31ZM167.94-8.86L171.16 0 172.1 0 171.91 0.62C171.67 1.2 171.16 1.52 170.56 1.55 169.95 1.55 169.38 1.42 168.8 1.18L168.3 3.41C169.07 3.67 169.85 3.86 170.88 3.86 172.87 3.84 173.8 2.7 174.42 0.97L177.98-8.86 179.64-8.86 179.64-11.03 173.93-11.03 173.93-8.86 175.11-8.86 172.94-2.51 170.83-8.86 171.99-8.86 171.99-11.03 166.28-11.03 166.28-8.86Z"
                            transform="translate(-0.6700000166893005, 15.390000343322754)"></path>
                    </g> <!----> <!----> <!----> <!----> <!----> <!----> <!---->
                </g>
            </g> <!---->
        </g>
    </g>
    <defs v-gra="od"></defs>
</svg>