<?xml version="1.0" encoding="UTF-8" standalone="no"?>
<svg
   class="looka-1j8o68f"
   height="54.975319"
   viewBox="0 0 369.38097 52.02745"
   width="390.31003"
   version="1.1"
   id="svg9"
   sodipodi:docname="logo-full-h.svg"
   inkscape:version="1.2.2 (732a01da63, 2022-12-09)"
   xmlns:inkscape="http://www.inkscape.org/namespaces/inkscape"
   xmlns:sodipodi="http://sodipodi.sourceforge.net/DTD/sodipodi-0.dtd"
   xmlns="http://www.w3.org/2000/svg"
   xmlns:svg="http://www.w3.org/2000/svg">
  <sodipodi:namedview
     id="namedview11"
     pagecolor="#ffffff"
     bordercolor="#000000"
     borderopacity="0.25"
     inkscape:showpageshadow="2"
     inkscape:pageopacity="0.0"
     inkscape:pagecheckerboard="0"
     inkscape:deskcolor="#d1d1d1"
     showgrid="false"
     inkscape:zoom="3.8525535"
     inkscape:cx="152.49626"
     inkscape:cy="14.146462"
     inkscape:window-width="1920"
     inkscape:window-height="991"
     inkscape:window-x="-9"
     inkscape:window-y="-9"
     inkscape:window-maximized="1"
     inkscape:current-layer="svg9" />
  <defs
     id="SvgjsDefs1217" />
  <g
     featurekey="HKaMnE-0"
     fill="#41a4c3"
     id="SvgjsG1218"
     transform="matrix(1.5337895,0,0,1.5337895,-24.84739,-29.755516)">
    <polygon
       points="32.4,45.7 30.4,45.7 30.4,49.4 18.2,49.4 18.2,35.1 30.4,35.1 30.4,39.3 32.4,39.3 32.4,33.1 18.2,33.1 18.2,21.4 46.2,21.4 46.2,26.6 40.2,26.6 40.2,28.6 46.2,28.6 46.2,32.9 51.2,38.5 52.7,37.1 48.2,32.2 48.2,19.4 16.2,19.4 16.2,51.4 48.2,51.4 48.2,41.6 46.2,41.6 46.2,49.4 32.4,49.4 "
       id="polygon3" />
  </g>
  <g
     featurekey="J3GnXt-0"
     fill="#58d5d3"
     id="SvgjsG1219"
     transform="matrix(2.0770049,0,0,2.0770049,66.63673,-0.72695351)">
    <path
       d="m 5.3,4.399269 c 0.53334,0 0.97998,0.04666 1.34,0.14 l -0.2,1.6 c -0.29334,-0.12 -0.63334,-0.18 -1.02,-0.18 -0.54666,0 -0.94,0.15 -1.18,0.45 -0.24,0.3 -0.36,0.83 -0.36,1.59 v 2.28 h 2.14 v 1.56 H 3.86 v 7.92 h -1.8 v -7.92 H 0.02 v -1.56 h 2.04 v -2.2 c 0,-1.2667 0.25666,-2.1966 0.77,-2.79 0.51334,-0.5934 1.3367,-0.89 2.47,-0.89 z m 4.66,0.24 v 15.12 h -1.8 v -15.12 z m 7.44,5.4 c 1.4,0 2.5866,0.48338 3.56,1.45 0.9734,0.96662 1.4667,2.1434 1.48,3.53 0,1.4 -0.48666,2.5734 -1.46,3.52 -0.97334,0.9466 -2.1666,1.4333 -3.58,1.46 -1.3867,0 -2.5666,-0.48 -3.54,-1.44 -0.9734,-0.96 -1.4733,-2.14 -1.5,-3.54 0,-1.3733 0.48334,-2.54 1.45,-3.5 0.96666,-0.96 2.1634,-1.4533 3.59,-1.48 z m -3.12,4.98 c 0,0.97334 0.28664,1.7633 0.85998,2.37 0.57334,0.6067 1.3267,0.91666 2.26,0.93 0.94666,0 1.7,-0.30334 2.26,-0.91 0.56,-0.60666 0.84666,-1.4033 0.86,-2.39 0,-0.97334 -0.28,-1.7633 -0.84,-2.37 -0.56,-0.6067 -1.3267,-0.91666 -2.3,-0.93 -0.94666,0 -1.7,0.31334 -2.26,0.94 -0.56,0.62666 -0.84,1.4133 -0.84,2.36 z m 15,-4.98 c 1.4,0 2.5866,0.48338 3.56,1.45 0.9734,0.96662 1.4667,2.1434 1.48,3.53 0,1.4 -0.48666,2.5734 -1.46,3.52 -0.97334,0.9466 -2.1666,1.4333 -3.58,1.46 -1.3867,0 -2.5666,-0.48 -3.54,-1.44 -0.9734,-0.96 -1.4733,-2.14 -1.5,-3.54 0,-1.3733 0.48334,-2.54 1.45,-3.5 0.96666,-0.96 2.1634,-1.4533 3.59,-1.48 z m -3.12,4.98 c 0,0.97334 0.28664,1.7633 0.85998,2.37 0.57334,0.6067 1.3267,0.91666 2.26,0.93 0.94666,0 1.7,-0.30334 2.26,-0.91 0.56,-0.60666 0.84666,-1.4033 0.86,-2.39 0,-0.97334 -0.28,-1.7633 -0.84,-2.37 -0.56,-0.6067 -1.3267,-0.91666 -2.3,-0.93 -0.94666,0 -1.7,0.31334 -2.26,0.94 -0.56,0.62666 -0.84,1.4133 -0.84,2.36 z m 15.1,-4.98 c 0.33334,0 0.6,0.04 0.8,0.12 l -0.08,1.94 c -0.34666,-0.09334 -0.64666,-0.14 -0.9,-0.14 -1.7733,0 -2.6734,0.98666 -2.7,2.96 v 4.84 h -1.8 v -9.48 h 1.8 v 1.46 h 0.04 c 0.24,-0.50666 0.62666,-0.91666 1.16,-1.23 0.53334,-0.31334 1.0933,-0.47 1.68,-0.47 z m 7.88,0 c 1.4,0 2.5434,0.45998 3.43,1.38 0.8866,0.92002 1.3433,2.12 1.37,3.6 0,1.48 -0.45334,2.6766 -1.36,3.59 -0.90666,0.9134 -2.06,1.3767 -3.46,1.39 -0.69334,0 -1.34,-0.14666 -1.94,-0.44 -0.6,-0.29334 -1.0533,-0.68 -1.36,-1.16 h -0.04 v 7 h -1.8 v -15.12 h 1.8 v 1.36 h 0.04 c 0.36,-0.50666 0.83334,-0.9 1.42,-1.18 0.58666,-0.28 1.22,-0.42 1.9,-0.42 z m -3.36,4.98 c 0,0.98666 0.28998,1.7833 0.86998,2.39 0.58,0.6067 1.33,0.91 2.25,0.91 0.96,0 1.7167,-0.30334 2.27,-0.91 0.5533,-0.60666 0.83668,-1.4033 0.85002,-2.39 0,-0.98666 -0.28334,-1.78 -0.85,-2.38 -0.56666,-0.6 -1.33,-0.90666 -2.29,-0.92 -0.94666,0 -1.7,0.31 -2.26,0.93 -0.56,0.62 -0.84,1.41 -0.84,2.37 z m 12.36,-10.38 v 15.12 h -1.8 v -15.12 z m 6.66,5.4 c 1.2,0 2.15,0.27328 2.85,0.81994 0.7,0.54666 1.07,1.3067 1.11,2.28 v 5.08 c 0,0.48 0.02666,0.99334 0.08,1.54 h -1.6 c -0.04,-0.42666 -0.06,-0.90666 -0.06,-1.44 h -0.04 c -0.41334,0.61334 -0.89,1.0467 -1.43,1.3 -0.54,0.2533 -1.17,0.38 -1.89,0.38 -0.97334,0 -1.7633,-0.26 -2.37,-0.78 -0.6067,-0.52 -0.91,-1.2067 -0.91,-2.06 0,-1.08 0.45334,-1.8967 1.36,-2.45 0.90666,-0.5533 2.1866,-0.83 3.84,-0.83 h 1.34 v -0.34 c 0,-0.64 -0.21,-1.1433 -0.63,-1.51 -0.42,-0.3667 -0.97,-0.55 -1.65,-0.55 -0.50666,0 -0.95,0.07666 -1.33,0.23 -0.38,0.15334 -0.83,0.43668 -1.35,0.85002 l -1.08,-1.12 c 1.0267,-0.90666 2.28,-1.3733 3.76,-1.4 z m -2.46,6.98 c 0,1.0267 0.68002,1.54 2.04,1.54 0.81334,0 1.4633,-0.24334 1.95,-0.73 0.4867,-0.48666 0.73666,-1.19 0.75,-2.11 v -0.52 h -1.02 c -1.1733,0 -2.0866,0.15 -2.74,0.45 -0.6534,0.3 -0.98,0.75666 -0.98,1.37 z m 14,-6.98 c 1.0667,0 1.9033,0.32 2.51,0.96 0.6067,0.64 0.91666,1.5 0.93,2.58 v 6.18 h -1.8 v -5.66 c 0,-0.73334 -0.19,-1.3133 -0.57,-1.74 -0.38,-0.4267 -0.91,-0.64 -1.59,-0.64 -0.84,0 -1.49,0.28 -1.95,0.84 -0.46,0.56 -0.69,1.3067 -0.69,2.24 v 4.96 h -1.8 v -9.48 h 1.8 v 1.46 h 0.04 c 0.25334,-0.53334 0.66334,-0.95 1.23,-1.25 0.56666,-0.3 1.1967,-0.45 1.89,-0.45 z m 12.66,0.24 2.84,7.26 2.72,-7.26 h 1.92 l -3.72,9.48 h -1.98 l -3.86,-9.48 z m 10.1,-4.72 c 0.36,0 0.67002,0.13002 0.93002,0.39002 0.26,0.26 0.39,0.57 0.39,0.93 0,0.37334 -0.13334,0.68668 -0.4,0.94002 -0.26666,0.25334 -0.57332,0.38 -0.91998,0.38 -0.37334,0 -0.68668,-0.12666 -0.94002,-0.38 -0.25334,-0.25334 -0.38,-0.56668 -0.38,-0.94002 0,-0.37334 0.13334,-0.68668 0.4,-0.94002 0.26666,-0.25334 0.57332,-0.38 0.91998,-0.38 z m 0.9,4.72 v 9.48 h -1.8 v -9.48 z m 7.2,-0.24 c 1.4533,0 2.5834,0.45664 3.39,1.37 0.8066,0.91336 1.2167,2.17 1.23,3.77 v 0.5 h -7.6 c 0,0.77334 0.31,1.4233 0.93,1.95 0.62,0.5267 1.3767,0.79666 2.27,0.81 0.98666,0 1.8533,-0.47334 2.6,-1.42 l 1.36,1.04 c -1.0133,1.2933 -2.4134,1.94 -4.2,1.94 -1.4533,0 -2.6234,-0.46334 -3.51,-1.39 -0.8866,-0.92666 -1.3433,-2.1234 -1.37,-3.59 0,-1.4133 0.45666,-2.59 1.37,-3.53 0.91334,-0.94 2.09,-1.4233 3.53,-1.45 z m 2.7,4.2 c -0.0267,-0.89334 -0.28,-1.5767 -0.76,-2.05 -0.48,-0.4733 -1.14,-0.71 -1.98,-0.71 -0.56,0 -1.0633,0.13666 -1.51,0.41 -0.4467,0.27334 -0.79666,0.62668 -1.05,1.06 -0.25334,0.43332 -0.38,0.86334 -0.38,1.29 z m 4.96,-3.96 2.14,7.08 h 0.04 l 2.26,-7.08 h 1.9 l 2.4,7.08 h 0.04 l 2.04,-7.08 h 1.9 l -3.06,9.48 h -1.82 l -2.5,-7.08 h -0.04 l -2.26,7.08 h -1.94 l -3.12,-9.48 z m 18.64,-0.24 c 1.4533,0 2.5834,0.45664 3.39,1.37 0.8066,0.91336 1.2167,2.17 1.23,3.77 v 0.5 h -7.6 c 0,0.77334 0.31,1.4233 0.93,1.95 0.62,0.5267 1.3767,0.79666 2.27,0.81 0.98666,0 1.8533,-0.47334 2.6,-1.42 l 1.36,1.04 c -1.0133,1.2933 -2.4134,1.94 -4.2,1.94 -1.4533,0 -2.6234,-0.46334 -3.51,-1.39 -0.8866,-0.92666 -1.3433,-2.1234 -1.37,-3.59 0,-1.4133 0.45666,-2.59 1.37,-3.53 0.91334,-0.94 2.09,-1.4233 3.53,-1.45 z m 2.7,4.2 c -0.0267,-0.89334 -0.28,-1.5767 -0.76,-2.05 -0.48,-0.4733 -1.14,-0.71 -1.98,-0.71 -0.56,0 -1.0633,0.13666 -1.51,0.41 -0.4467,0.27334 -0.79666,0.62668 -1.05,1.06 -0.25334,0.43332 -0.38,0.86334 -0.38,1.29 z m 8.76,-4.2 c 0.33334,0 0.6,0.04 0.8,0.12 l -0.08,1.94 c -0.34666,-0.09334 -0.64666,-0.14 -0.9,-0.14 -1.7733,0 -2.6734,0.98666 -2.7,2.96 v 4.84 h -1.8 v -9.48 h 1.8 v 1.46 h 0.04 c 0.24,-0.50666 0.62666,-0.91666 1.16,-1.23 0.53334,-0.31334 1.0933,-0.47 1.68,-0.47 z"
       id="path6" />
  </g>
</svg>
